# xmcd
#
# Track frame offsets:
#	150
#	8280
#	20993
#	29843
#	39391
#	55239
#	62664
#	71822
#	84692
#	93520
#	100713
#	110636
#
# Disc length: 1637 seconds
#
# Revision: 1
# Processed by: cddbd v1.5.2PL0 Copyright (c) Steve Scherf et al.
# Submitted via: audiograbber 1.83.01
#
DISCID=9f06630c
DTITLE=Marty Robbins - Island Woman
DYEAR=1964
DGENRE=Country
TTITLE0=The Mango Song
TTITLE1=Girl From Spanish Town
TTITLE2=Blue Sea
TTITLE3=Calypso Vacation
TTITLE4=Calypso Girl
TTITLE5=Native Girl
TTITLE6=Bahama Mama
TTITLE7=Tahitian Boy
TTITLE8=Kingston Girl
TTITLE9=Back To Montego Bay
TTITLE10=A Woman Gets Her Way
TTITLE11=Sweet Bird Of Paradise
EXTD=
EXTT0=
EXTT1=
EXTT2=
EXTT3=
EXTT4=
EXTT5=
EXTT6=
EXTT7=
EXTT8=
EXTT9=
EXTT10=
EXTT11=
PLAYORDER=
